<?xml version="1.0" standalone="no"?>
<!DOCTYPE svg PUBLIC "-//W3C//DTD SVG 20010904//EN"
 "http://www.w3.org/TR/2001/REC-SVG-20010904/DTD/svg10.dtd">
<svg version="1.0" xmlns="http://www.w3.org/2000/svg"
 width="263.000000pt" height="263.000000pt" viewBox="0 0 263.000000 263.000000"
 preserveAspectRatio="xMidYMid meet">
<metadata>
Created by potrace 1.11, written by Peter Selinger 2001-2013
</metadata>
<g transform="translate(0.000000,263.000000) scale(0.100000,-0.100000)"
fill="#000000" stroke="none">
<path d="M0 1315 l0 -1315 1315 0 1315 0 0 1315 0 1315 -1315 0 -1315 0 0
-1315z m1040 755 c28 -20 60 -75 60 -104 0 -20 1 -20 46 2 34 16 38 16 47 1
10 -16 14 -15 51 1 114 48 299 69 378 41 21 -7 48 -25 62 -42 53 -63 58 -219
11 -314 -35 -70 -183 -273 -294 -403 -109 -129 -174 -218 -169 -232 15 -47
403 357 646 672 121 157 222 241 265 221 25 -12 67 -88 67 -123 0 -29 -45
-111 -163 -298 -160 -252 -267 -457 -267 -511 0 -29 20 -26 86 13 97 59 246
255 389 511 62 111 66 122 56 151 -17 46 -14 56 28 120 47 72 98 124 121 124
53 0 74 -98 45 -208 -37 -140 -132 -355 -205 -462 -20 -30 -63 -97 -95 -149
-67 -108 -163 -215 -250 -276 -152 -108 -212 -111 -298 -16 -85 94 -74 233 33
449 33 64 49 104 37 87 -83 -114 -278 -346 -358 -426 -120 -120 -205 -168
-264 -149 -76 25 -122 165 -91 273 21 72 145 246 296 412 215 238 252 294 214
322 -42 32 -159 -6 -371 -120 l-133 -71 -31 -95 c-34 -104 -114 -281 -172
-380 -21 -34 -37 -64 -37 -67 0 -3 43 18 95 46 l95 51 0 -48 0 -48 -133 -74
c-122 -67 -136 -78 -161 -123 -38 -68 -199 -310 -254 -383 -167 -221 -243
-272 -307 -208 -25 26 -27 33 -22 88 11 141 156 332 393 516 l100 78 58 118
c122 247 207 463 199 506 -7 37 45 232 74 274 27 39 31 83 8 83 -49 0 -146
-77 -227 -178 -95 -120 -228 -420 -228 -515 0 -19 3 -18 33 10 51 50 107 65
107 28 0 -7 -40 -64 -90 -127 -121 -156 -189 -201 -241 -160 -21 18 -24 30
-27 100 -9 200 71 487 184 659 55 83 197 227 275 279 152 100 258 124 329 74z"/>
</g>
</svg>
